<svg xmlns="http://www.w3.org/2000/svg" version="1.1" xmlns:xlink="http://www.w3.org/1999/xlink" width="512" height="512" x="0" y="0" viewBox="0 0 512 512" style="enable-background:new 0 0 512 512" xml:space="preserve" class=""><g><path d="M95.374 73.987c0-15.76 3.936-30.239 9.927-41.634C113.268 17.199 124.869 7.5 135.678 7.5c10.808 0 22.41 9.699 30.377 24.853 5.991 11.395 9.927 25.874 9.927 41.634 0 15.76-3.936 30.239-9.927 41.634-7.967 15.154-19.569 24.853-30.377 24.853s-22.41-9.699-30.377-24.853c-5.991-11.395-9.927-25.874-9.927-41.634z" style="" fill="#38d39a" data-original="#38d39a" class=""></path><path d="M175.681 66.591A160.34 160.34 0 0 0 141.5 77.519c-5.006 2.247-10.87-.316-12.477-5.562-5.725-18.69-4.523-45.562 1.784-63.82-9.315 2.379-18.727 11.32-25.507 24.216-5.991 11.395-9.927 25.874-9.927 41.634 0 15.76 3.936 30.239 9.927 41.634 7.967 15.155 19.569 24.853 30.377 24.853s22.41-9.699 30.377-24.853c5.991-11.395 9.927-25.874 9.927-41.634a93.807 93.807 0 0 0-.3-7.396z" style="" fill="#00c072" data-original="#00c072" class=""></path><path d="M118.534 168.049c-11.664-11.664-23.107-20.245-34.983-26.233-11.422-5.76-23.999-9.476-38.451-11.361-11.997-1.565-20.454-12.559-18.889-24.556 1.564-11.995 12.553-20.458 24.555-18.889 19.429 2.534 36.606 7.664 52.511 15.684 16.102 8.12 31.226 19.363 46.236 34.373 8.555 8.555 8.555 22.426 0 30.981-8.553 8.555-22.425 8.555-30.979.001z" style="" fill="#e9a982" data-original="#e9a982"></path><path d="M297.899 504.5c-41.598-.003-79.941-15.439-107.967-43.465-33.274-33.273-41.727-63.938-48.518-88.576-5.954-21.603-10.257-37.21-29.528-56.481-50.028-50.029-49.109-132.351 2.049-183.509 25.176-25.177 58.43-39.042 93.637-39.042 34.1 0 66.017 13.138 89.872 36.992 19.272 19.273 34.88 23.575 56.482 29.529 24.639 6.791 55.303 15.244 88.576 48.519 30.852 30.851 46.153 73.203 43.089 119.256-2.959 44.452-22.857 87.201-56.028 120.373-35.847 35.844-83.834 56.404-131.652 56.404h-.012z" style="" fill="#5972a4" data-original="#5972a4" class=""></path><path d="M263.144 500.765c-7.251-11.217-5.111-28.866 1.118-36.194l14.801-305.318c-3.686-9.829-3.47-29.899 4.681-40.703-21.772-16.302-48.238-25.124-76.173-25.124-35.206 0-68.461 13.865-93.637 39.042-51.158 51.158-52.078 133.479-2.049 183.509 19.272 19.271 23.574 34.879 29.528 56.481 6.792 24.639 15.244 55.303 48.519 88.576 20.003 20.004 45.265 33.588 73.212 39.731z" style="" fill="#3b5a9a" data-original="#3b5a9a"></path><path d="M406.962 425.496c29.046-29.046 44.85-65.755 46.831-101.421 1.925-34.65-9.195-68.314-33.891-93.011-30.246-30.246-56.116-35.018-82.034-42.416-20.273-5.787-40.575-13.181-63.025-35.631-18.814-18.814-43.702-27.991-68.731-27.621-25.029.371-50.2 10.29-69.58 29.67-19.38 19.38-29.299 44.551-29.67 69.58-.371 25.029 8.807 49.917 27.621 68.731 22.45 22.45 29.844 42.752 35.631 63.025 7.398 25.918 12.17 51.787 42.416 82.034 24.697 24.697 58.361 35.817 93.011 33.891 35.666-1.981 72.375-17.785 101.421-46.831z" style="" fill="#38d39a" data-original="#38d39a" class=""></path><path d="M315.938 389.958V283.615c-7.905-14.96-19.01-63.255 3.353-101.08-14.252-5.573-28.829-13.901-44.446-29.518-18.814-18.814-43.702-27.991-68.731-27.621-25.029.371-50.2 10.29-69.58 29.67-19.38 19.38-29.299 44.551-29.67 69.58-.371 25.029 8.807 49.917 27.621 68.731 22.45 22.45 29.844 42.752 35.631 63.025 7.398 25.918 12.17 51.787 42.416 82.034 24.697 24.697 58.361 35.817 93.011 33.891 3.11-.173 6.228-.458 9.348-.84-10.359-21.849-12.636-61.892 1.047-81.529z" style="" fill="#00c072" data-original="#00c072" class=""></path><circle cx="314.451" cy="334.765" r="60.108" style="" fill="#e9a982" data-original="#e9a982"></circle><path d="M327.66 276.135c-19.426-4.357-40.593 1.008-55.712 16.127-23.474 23.474-23.474 61.532 0 85.006 16.529 16.529 40.286 21.402 61.095 14.653-25.071-29.64-26.194-88.028-5.383-115.786z" style="" fill="#e3986d" data-original="#e3986d"></path><path d="M297.899 504.5c-41.598-.003-79.941-15.439-107.967-43.465-33.274-33.273-41.727-63.938-48.518-88.576-5.954-21.603-10.257-37.21-29.528-56.481-50.028-50.029-49.109-132.351 2.049-183.509 25.176-25.177 58.43-39.042 93.637-39.042 34.1 0 66.017 13.138 89.872 36.992 19.272 19.273 34.88 23.575 56.482 29.529 24.639 6.791 55.303 15.244 88.576 48.519 30.852 30.851 46.153 73.203 43.089 119.256-2.959 44.452-22.857 87.201-56.028 120.373-35.847 35.844-83.834 56.404-131.652 56.404h-.012z" style="stroke-width:15;stroke-linecap:round;stroke-linejoin:round;stroke-miterlimit:10;" fill="none" stroke="#000000" stroke-width="15" stroke-linecap="round" stroke-linejoin="round" stroke-miterlimit="10" data-original="#000000" class=""></path><circle cx="314.451" cy="334.765" r="60.108" style="stroke-width:15;stroke-linecap:round;stroke-linejoin:round;stroke-miterlimit:10;" fill="none" stroke="#000000" stroke-width="15" stroke-linecap="round" stroke-linejoin="round" stroke-miterlimit="10" data-original="#000000" class=""></circle><path d="M129.327 119.211c-8.481-6.539-17.114-12.011-26.049-16.517-15.905-8.02-33.082-13.15-52.511-15.684-12.002-1.569-22.991 6.894-24.555 18.889-1.565 11.997 6.892 22.991 18.889 24.556 14.451 1.885 27.029 5.601 38.451 11.361 5.053 2.548 10.028 5.57 14.975 9.095" style="stroke-width:15;stroke-linecap:round;stroke-linejoin:round;stroke-miterlimit:10;" fill="none" stroke="#000000" stroke-width="15" stroke-linecap="round" stroke-linejoin="round" stroke-miterlimit="10" data-original="#000000" class=""></path><path d="M172.836 98.07a93.568 93.568 0 0 0 3.145-24.083c0-15.76-3.936-30.239-9.927-41.634C158.087 17.199 146.486 7.5 135.678 7.5c-10.809 0-22.41 9.699-30.377 24.853-5.991 11.395-9.927 25.874-9.927 41.634 0 9.528 1.446 18.582 3.908 26.775M176.477 285.107l8.485 8.485M264.793 196.791l8.485 8.485M217.226 260.824c6.079.417 12.299-1.691 16.946-6.338 4.647-4.647 6.756-10.867 6.338-16.946" style="stroke-width:15;stroke-linecap:round;stroke-linejoin:round;stroke-miterlimit:10;" fill="none" stroke="#000000" stroke-width="15" stroke-linecap="round" stroke-linejoin="round" stroke-miterlimit="10" data-original="#000000" class=""></path><path d="M181.997 128.747c-16.581 4.422-32.349 13.205-45.464 26.32-19.38 19.38-29.299 44.551-29.67 69.58-.371 25.029 8.807 49.917 27.621 68.731 22.45 22.45 29.844 42.752 35.631 63.025 7.398 25.918 12.17 51.787 42.416 82.034 24.697 24.697 58.361 35.817 93.011 33.891 10.793-.6 21.682-2.465 32.425-5.58M370.378 453.192c13.004-7.234 25.366-16.478 36.584-27.696 29.046-29.046 44.85-65.755 46.831-101.421 1.925-34.65-9.195-68.314-33.891-93.011-30.246-30.246-56.116-35.018-82.034-42.416-20.273-5.787-40.575-13.181-63.025-35.631-15.938-15.938-36.234-24.96-57.284-27.121" style="stroke-width:15;stroke-linecap:round;stroke-linejoin:round;stroke-miterlimit:10;" fill="none" stroke="#000000" stroke-width="15" stroke-linecap="round" stroke-linejoin="round" stroke-miterlimit="10" data-original="#000000" class=""></path></g></svg>