<svg xmlns="http://www.w3.org/2000/svg" version="1.1" xmlns:xlink="http://www.w3.org/1999/xlink" width="512" height="512" x="0" y="0" viewBox="0 0 512 512" style="enable-background:new 0 0 512 512" xml:space="preserve" class=""><g><path d="M416.888 189.601c-32.013 32.013-81.721 36.973-102.726 37.571-5.553.158-10.09-4.378-9.931-9.931.598-21.004 5.558-70.713 37.571-102.726s81.721-36.973 102.726-37.571c5.553-.158 10.089 4.378 9.931 9.931-.598 21.005-5.558 70.713-37.571 102.726z" style="" fill="#57b089" data-original="#57b089"></path><path d="M347.446 191.876a7.92 7.92 0 0 1-5.601-13.52l63.799-63.798a7.92 7.92 0 0 1 11.201 11.201l-63.799 63.798a7.894 7.894 0 0 1-5.6 2.319z" style="opacity:0.1;enable-background:new ;" fill="#000000" opacity="1" data-original="#000000" class=""></path><circle cx="229.168" cy="294.185" r="196.792" style="" fill="#f09d2d" data-original="#f09d2d"></circle><path d="M423.809 265.048c-3.058-4.567-9.066-6.439-14.269-4.012L114.933 398.413c-6.005 2.8-8.322 10.099-5.113 15.897 17.72 32.007 44.319 56.456 75.225 71.697a197.452 197.452 0 0 0 44.125 4.971c108.684 0 196.789-88.106 196.789-196.789a198.43 198.43 0 0 0-2.15-29.141zM232.221 101.59a188.234 188.234 0 0 0-3.218-4.19c-44.521.037-85.576 14.864-118.533 39.826 5.63 2.108 11.509 3.787 17.632 4.862 42.946 7.543 84.885-16.032 101.778-27.175 4.468-2.946 5.537-9.031 2.341-13.323z" style="opacity:0.08;enable-background:new ;" fill="#000000" opacity="1" data-original="#000000" class=""></path><path d="M160.671 17.728c39.518 18.427 60.38 61.78 67.839 80.592 1.973 4.974-.639 10.574-5.717 12.26-19.206 6.378-65.827 18.263-105.343-.165s-60.38-61.78-67.839-80.592c-1.973-4.974.639-10.574 5.717-12.259 19.205-6.379 65.825-18.264 105.343.164z" style="" fill="#57b089" data-original="#57b089"></path><path d="M178.432 90.355a7.9 7.9 0 0 1-3.342-.744L96.337 52.886a7.92 7.92 0 0 1 6.695-14.355l78.753 36.723a7.92 7.92 0 0 1 3.83 10.525 7.921 7.921 0 0 1-7.183 4.576z" style="opacity:0.1;enable-background:new ;" fill="#000000" opacity="1" data-original="#000000" class=""></path><path d="M229.171 132.942c-6.998 0-12.672-5.674-12.672-12.672 0-32.572 11.925-58.791 36.458-80.155 5.278-4.597 13.281-4.043 17.879 1.234 4.597 5.278 4.043 13.282-1.234 17.879-18.938 16.492-27.759 35.889-27.759 61.043-.001 6.998-5.674 12.671-12.672 12.671z" style="" fill="#b67749" data-original="#b67749"></path><path d="M157.95 398.413c-6.005 2.8-8.322 10.099-5.113 15.897 43.966 79.413 142.565 112.334 226.081 73.391 83.516-38.945 121.675-135.637 89.101-220.362-2.378-6.185-9.458-9.103-15.464-6.301L157.95 398.413z" style="" fill="#f09d2d" data-original="#f09d2d"></path><path d="M157.95 398.413c-6.005 2.8-8.322 10.099-5.113 15.897 43.966 79.413 142.565 112.334 226.081 73.391 83.516-38.945 121.675-135.637 89.101-220.362-2.378-6.185-9.458-9.103-15.464-6.301L157.95 398.413z" style="opacity:0.1;enable-background:new ;" fill="#ffffff" data-original="#ffffff" class=""></path><path d="M170.039 402.266c14.765 27.577 36.944 48.944 62.885 62.781 4.409 2.352 9.878.288 11.586-4.407l37.505-103.046c2.756-7.571-5.018-14.694-12.32-11.289l-95.876 44.708c-4.244 1.98-5.99 7.124-3.78 11.253zm184.842 62.998-41.968-90.001c-2.308-4.951-9.451-4.639-11.319.494l-33.958 93.3c-1.709 4.696 1.155 9.791 6.044 10.823 24.692 5.212 50.826 4.393 76.098-3.302 4.788-1.459 7.218-6.775 5.103-11.314zm34.249-7.037c22.14-14.412 39.566-33.905 51.444-56.172 2.352-4.409.29-9.878-4.406-11.587l-93.3-33.958c-5.133-1.868-9.963 3.402-7.655 8.354l41.969 90.001c2.117 4.537 7.752 6.093 11.948 3.362zm-47.59-128.389 103.046 37.505c4.695 1.709 9.791-1.154 10.823-6.043 6.074-28.767 3.963-59.492-7.672-88.528-1.742-4.346-6.806-6.316-11.05-4.337l-95.876 44.708c-7.302 3.406-6.842 13.94.729 16.695z" style="opacity:0.3;enable-background:new ;" fill="#ffffff" data-original="#ffffff" class=""></path><path d="M153.791 253.782h-24.923c-4.375 0-7.92-3.545-7.92-7.92s3.545-7.92 7.92-7.92h24.923c4.375 0 7.92 3.545 7.92 7.92s-3.546 7.92-7.92 7.92zM327.957 253.782h-24.923c-4.375 0-7.92-3.545-7.92-7.92s3.545-7.92 7.92-7.92h24.923c4.374 0 7.92 3.545 7.92 7.92s-3.546 7.92-7.92 7.92z" style="" fill="#e6595a" data-original="#e6595a"></path><g style="opacity:0.08;"><circle cx="66.178" cy="323.679" r="7.903" fill="#000000" opacity="1" data-original="#000000" class=""></circle><circle cx="108.375" cy="335.78" r="7.903" fill="#000000" opacity="1" data-original="#000000" class=""></circle><circle cx="78.119" cy="290.785" r="7.903" fill="#000000" opacity="1" data-original="#000000" class=""></circle><circle cx="97.055" cy="367.523" r="7.903" fill="#000000" opacity="1" data-original="#000000" class=""></circle><circle cx="151.396" cy="355.221" r="7.903" fill="#000000" opacity="1" data-original="#000000" class=""></circle></g><path d="M320.089 371.917a14.024 14.024 0 0 0-13.348-8.099 14.009 14.009 0 0 0-12.591 9.231l-33.958 93.3a16.082 16.082 0 0 0 1.054 13.316 16.15 16.15 0 0 0 10.797 7.963 161.043 161.043 0 0 0 33.259 3.466c15.82 0 31.617-2.322 46.781-6.94a16.201 16.201 0 0 0 10.089-8.898 16.06 16.06 0 0 0-.114-13.339l-41.969-90zm27.616 96.888a.344.344 0 0 1-.237.196c-23.295 7.094-48.246 8.176-72.156 3.129a.296.296 0 0 1-.22-.155.217.217 0 0 1-.017-.208l32.482-89.243 40.145 86.089c.024.049.046.097.003.192zm127.707-204.309a19.469 19.469 0 0 0-10.848-11.042 19.317 19.317 0 0 0-15.355.406l-15.86 7.396-.008.003-1.969.919a204.103 204.103 0 0 0-18.572-58.443c3.455-2.712 6.713-5.557 9.69-8.532 14.857-14.858 25.823-34.695 32.594-58.964 5.425-19.443 6.96-37.452 7.293-49.137a17.654 17.654 0 0 0-5.141-12.933c-3.404-3.404-8.123-5.253-12.933-5.141-11.683.332-29.692 1.867-49.138 7.293-24.267 6.771-44.106 17.737-58.964 32.594a106.127 106.127 0 0 0-6.384 7.022c-22.945-12.96-48.292-21.44-74.603-24.801 4.073-9.563 10.496-18.017 19.589-25.936a20.46 20.46 0 0 0 7.019-14.111 20.453 20.453 0 0 0-5.015-14.941c-7.458-8.563-20.492-9.459-29.052-2.005-11.16 9.719-19.882 20.377-26.242 32.087-12.258-20.612-30.854-43.257-57.495-55.68-42.31-19.731-91.851-6.923-111.187-.504a17.301 17.301 0 0 0-10.185 9.066 17.296 17.296 0 0 0-.398 13.63c7.509 18.94 29.543 65.12 71.854 84.851a102.553 102.553 0 0 0 6.794 2.868 205.433 205.433 0 0 0-64.946 64.598c-20.601 32.627-31.489 70.363-31.489 109.128 0 112.877 91.832 204.709 204.709 204.709 2.555 0 5.226-.056 7.956-.163a185.298 185.298 0 0 0 11.454 4.182c18.539 6.07 37.665 9.086 56.741 9.085 26.319-.001 52.539-5.742 76.943-17.123 42.091-19.628 74.795-54.161 92.087-97.24 17.21-42.875 17.586-90.157 1.061-133.141zm-35.379 11.119c.035-.015.115-.055.232-.005.09.035.108.078.119.109 10.711 26.732 13.226 55.76 7.275 83.946-.012.054-.032.152-.156.221-.103.058-.16.035-.208.017L344.25 322.397c-.211-.076-.706-.257-.738-1.007-.033-.75.444-.971.647-1.068l95.874-44.707zm-92.631-155.5c30.179-30.18 78.133-34.708 97.35-35.255.6-.022 1.041.265 1.283.507.241.242.525.66.507 1.282-.548 19.218-5.078 67.174-35.255 97.351a90.49 90.49 0 0 1-6.15 5.596 204.944 204.944 0 0 0-32.932-41.853 204.644 204.644 0 0 0-28.756-23.38 89.764 89.764 0 0 1 3.953-4.248zm-89.244-74.027a4.734 4.734 0 0 1 3.117-1.166c1.327 0 2.648.552 3.586 1.629a4.715 4.715 0 0 1 1.157 3.448 4.719 4.719 0 0 1-1.62 3.257c-20.792 18.107-30.477 39.402-30.477 67.016 0 2.62-2.132 4.752-4.752 4.752s-4.752-2.132-4.752-4.752c.002-30.148 11.038-54.414 33.741-74.184zm-137.36 57.15C83.64 85.91 63.784 44.082 56.973 26.903a1.356 1.356 0 0 1 .03-1.096c.114-.245.35-.571.819-.727 17.541-5.826 62.348-17.497 99.502-.175 15.561 7.257 37.789 23.537 56.358 59.904-2.126 6.849-3.583 14.017-4.377 21.524-21.603 5.726-57.639 11.298-88.507-3.095zM40.301 294.187c0-35.768 10.043-70.58 29.044-100.672a189.523 189.523 0 0 1 73.287-67.207c7.802 1.313 15.569 1.866 23.097 1.865 16.136-.001 31.158-2.513 43.024-5.368 1.256 10.16 9.925 18.055 20.418 18.055 11.354 0 20.592-9.238 20.592-20.592 0-4.827.362-9.376 1.059-13.711 41.393 4.748 80.341 23.234 110.316 52.515 30.238 29.538 49.716 68.45 55.246 110.091L266.35 339.125l-.003.001-95.874 44.707-15.869 7.4a19.338 19.338 0 0 0-10.182 11.504 19.481 19.481 0 0 0 1.487 15.407c14.24 25.72 34.257 47.28 58.289 63.257-92.381-12.255-163.897-91.536-163.897-187.214zm136.865 104.005 95.907-44.722c.216-.1.673-.282 1.204.205.552.507.374 1.001.296 1.212l-37.505 103.046c-.018.048-.039.108-.147.149a.294.294 0 0 1-.269-.022c-25.42-13.56-46.041-34.145-59.631-59.532-.017-.03-.038-.071-.008-.163a.27.27 0 0 1 .153-.173zm282.487-6.456c-15.787 39.333-45.648 70.864-84.081 88.786-38.433 17.921-81.782 20.528-122.061 7.339-40.091-13.127-73.383-40.61-93.743-77.387a3.547 3.547 0 0 1-.282-2.836 3.404 3.404 0 0 1 1.811-2.046l.001-.001 1.283-.599c.152.34.299.681.476 1.012 15.075 28.158 37.947 50.991 66.139 66.029a16.175 16.175 0 0 0 7.618 1.908c1.952 0 3.909-.354 5.773-1.069a16.084 16.084 0 0 0 9.367-9.522l37.505-103.046a16.902 16.902 0 0 0-1.078-13.973l40.443-18.859a16.906 16.906 0 0 0 10.01 9.808l103.046 37.505a16.088 16.088 0 0 0 13.315-1.052 16.154 16.154 0 0 0 7.965-10.796c6.602-31.263 3.811-63.461-8.069-93.111-.139-.347-.306-.679-.469-1.014l1.284-.599a3.368 3.368 0 0 1 1.438-.324 3.518 3.518 0 0 1 3.287 2.29c15.082 39.239 14.736 82.408-.978 121.557zM315.496 224.442a7.919 7.919 0 0 0 7.92-7.92v-4.086a7.919 7.919 0 0 0-7.92-7.92 7.919 7.919 0 0 0-7.92 7.92v4.086a7.92 7.92 0 0 0 7.92 7.92zM213.79 245.437a22.452 22.452 0 0 0 14.623-5.399 22.447 22.447 0 0 0 14.624 5.399c12.43 0 22.543-10.112 22.543-22.543a7.919 7.919 0 0 0-7.92-7.92 7.919 7.919 0 0 0-7.92 7.92 6.71 6.71 0 0 1-6.703 6.703 6.71 6.71 0 0 1-6.704-6.703 7.919 7.919 0 0 0-7.92-7.92 7.919 7.919 0 0 0-7.92 7.92 6.71 6.71 0 0 1-6.703 6.703 6.71 6.71 0 0 1-6.703-6.703c0-4.375-3.545-7.92-7.92-7.92s-7.92 3.545-7.92 7.92c0 12.431 10.112 22.543 22.543 22.543zm225.089 137.589-93.301-33.958a14.009 14.009 0 0 0-15.165 3.713 14.01 14.01 0 0 0-2.374 15.431l41.968 90.001a16.058 16.058 0 0 0 10.145 8.66 16.19 16.19 0 0 0 4.446.624 16.23 16.23 0 0 0 8.854-2.633c22.643-14.74 41.355-35.17 54.113-59.082a16.16 16.16 0 0 0 .836-13.393 16.094 16.094 0 0 0-9.522-9.363zm-5.292 15.302c-11.502 21.558-28.368 39.975-48.778 53.261a.356.356 0 0 1-.301.055c-.102-.029-.124-.076-.148-.127l-40.144-86.089 89.243 32.481c.049.018.109.04.15.147.052.135.001.229-.022.272zM149.25 216.522v-4.086a7.919 7.919 0 0 0-7.92-7.92 7.919 7.919 0 0 0-7.92 7.92v4.086a7.919 7.919 0 0 0 7.92 7.92 7.92 7.92 0 0 0 7.92-7.92z" fill="#000000" opacity="1" data-original="#000000" class=""></path></g></svg>